<svg xmlns="http://www.w3.org/2000/svg" version="1.1" xmlns:xlink="http://www.w3.org/1999/xlink" xmlns:svgjs="http://svgjs.dev/svgjs" width="1440" height="768" preserveAspectRatio="none" viewBox="0 0 1440 768"><g mask="url(&quot;#SvgjsMask1432&quot;)" fill="none"><rect width="1440" height="768" x="0" y="0" fill="url(&quot;#SvgjsLinearGradient1433&quot;)"></rect><path d="M-87.64 546.08L-87.64 546.08" stroke="#132e65" stroke-width="1.5"></path><path d="M-87.64 546.08L-100.75 649.15" stroke="#132e65" stroke-width="1.5"></path><path d="M-87.64 546.08L67.68 702.2" stroke="#132e65" stroke-width="1.5"></path><path d="M-87.64 546.08L-106.66 817.8" stroke="#132e65" stroke-width="1.5"></path><path d="M-87.64 546.08L188.95 526.9" stroke="#132e65" stroke-width="1.5"></path><path d="M-87.64 546.08L253.37 708.45" stroke="#132e65" stroke-width="1.5"></path><path d="M-100.75 649.15L-100.75 649.15" stroke="#132e65" stroke-width="1.5"></path><path d="M-100.75 649.15L-106.66 817.8" stroke="#132e65" stroke-width="1.5"></path><path d="M-100.75 649.15L67.68 702.2" stroke="#132e65" stroke-width="1.5"></path><path d="M-106.66 817.8L-106.66 817.8" stroke="#132e65" stroke-width="1.5"></path><path d="M-55.82 996.05L-55.82 996.05" stroke="#132e65" stroke-width="1.5"></path><path d="M-55.82 996.05L-106.66 817.8" stroke="#132e65" stroke-width="1.5"></path><path d="M-55.82 996.05L207.77 968.26" stroke="#132e65" stroke-width="1.5"></path><path d="M67.68 702.2L67.68 702.2" stroke="#132e65" stroke-width="1.5"></path><path d="M67.68 702.2L253.37 708.45" stroke="#132e65" stroke-width="1.5"></path><path d="M67.68 702.2L217.09 833.18" stroke="#132e65" stroke-width="1.5"></path><path d="M67.68 702.2L-106.66 817.8" stroke="#132e65" stroke-width="1.5"></path><path d="M67.68 702.2L188.95 526.9" stroke="#132e65" stroke-width="1.5"></path><path d="M188.95 526.9L188.95 526.9" stroke="#132e65" stroke-width="1.5"></path><path d="M188.95 526.9L253.37 708.45" stroke="#132e65" stroke-width="1.5"></path><path d="M188.95 526.9L398.73 558.82" stroke="#132e65" stroke-width="1.5"></path><path d="M253.37 708.45L253.37 708.45" stroke="#132e65" stroke-width="1.5"></path><path d="M253.37 708.45L217.09 833.18" stroke="#132e65" stroke-width="1.5"></path><path d="M253.37 708.45L344.2 803.9" stroke="#132e65" stroke-width="1.5"></path><path d="M217.09 833.18L217.09 833.18" stroke="#132e65" stroke-width="1.5"></path><path d="M217.09 833.18L344.2 803.9" stroke="#132e65" stroke-width="1.5"></path><path d="M217.09 833.18L207.77 968.26" stroke="#132e65" stroke-width="1.5"></path><path d="M217.09 833.18L392.61 992.85" stroke="#132e65" stroke-width="1.5"></path><path d="M217.09 833.18L492.41 794.45" stroke="#132e65" stroke-width="1.5"></path><path d="M207.77 968.26L207.77 968.26" stroke="#132e65" stroke-width="1.5"></path><path d="M207.77 968.26L392.61 992.85" stroke="#132e65" stroke-width="1.5"></path><path d="M207.77 968.26L344.2 803.9" stroke="#132e65" stroke-width="1.5"></path><path d="M207.77 968.26L253.37 708.45" stroke="#132e65" stroke-width="1.5"></path><path d="M207.77 968.26L67.68 702.2" stroke="#132e65" stroke-width="1.5"></path><path d="M398.73 558.82L398.73 558.82" stroke="#132e65" stroke-width="1.5"></path><path d="M398.73 558.82L519.19 534.13" stroke="#132e65" stroke-width="1.5"></path><path d="M398.73 558.82L498.65 689.73" stroke="#132e65" stroke-width="1.5"></path><path d="M398.73 558.82L253.37 708.45" stroke="#132e65" stroke-width="1.5"></path><path d="M398.73 558.82L542 366.76" stroke="#132e65" stroke-width="1.5"></path><path d="M344.2 803.9L344.2 803.9" stroke="#132e65" stroke-width="1.5"></path><path d="M344.2 803.9L492.41 794.45" stroke="#132e65" stroke-width="1.5"></path><path d="M344.2 803.9L498.65 689.73" stroke="#132e65" stroke-width="1.5"></path><path d="M392.61 992.85L392.61 992.85" stroke="#132e65" stroke-width="1.5"></path><path d="M392.61 992.85L538.15 976.12" stroke="#132e65" stroke-width="1.5"></path><path d="M392.61 992.85L344.2 803.9" stroke="#132e65" stroke-width="1.5"></path><path d="M392.61 992.85L492.41 794.45" stroke="#132e65" stroke-width="1.5"></path><path d="M392.61 992.85L659.1 1007.83" stroke="#132e65" stroke-width="1.5"></path><path d="M542 366.76L542 366.76" stroke="#132e65" stroke-width="1.5"></path><path d="M542 366.76L659.07 398.4" stroke="#132e65" stroke-width="1.5"></path><path d="M542 366.76L519.19 534.13" stroke="#132e65" stroke-width="1.5"></path><path d="M542 366.76L699.68 532.76" stroke="#132e65" stroke-width="1.5"></path><path d="M519.19 534.13L519.19 534.13" stroke="#132e65" stroke-width="1.5"></path><path d="M519.19 534.13L498.65 689.73" stroke="#132e65" stroke-width="1.5"></path><path d="M498.65 689.73L498.65 689.73" stroke="#132e65" stroke-width="1.5"></path><path d="M498.65 689.73L492.41 794.45" stroke="#132e65" stroke-width="1.5"></path><path d="M492.41 794.45L492.41 794.45" stroke="#132e65" stroke-width="1.5"></path><path d="M492.41 794.45L538.15 976.12" stroke="#132e65" stroke-width="1.5"></path><path d="M492.41 794.45L710.94 801.34" stroke="#132e65" stroke-width="1.5"></path><path d="M538.15 976.12L538.15 976.12" stroke="#132e65" stroke-width="1.5"></path><path d="M538.15 976.12L659.1 1007.83" stroke="#132e65" stroke-width="1.5"></path><path d="M659.07 398.4L659.07 398.4" stroke="#132e65" stroke-width="1.5"></path><path d="M659.07 398.4L699.68 532.76" stroke="#132e65" stroke-width="1.5"></path><path d="M659.07 398.4L849.17 404.15" stroke="#132e65" stroke-width="1.5"></path><path d="M659.07 398.4L519.19 534.13" stroke="#132e65" stroke-width="1.5"></path><path d="M659.07 398.4L852.16 555.08" stroke="#132e65" stroke-width="1.5"></path><path d="M659.07 398.4L835.98 215.74" stroke="#132e65" stroke-width="1.5"></path><path d="M699.68 532.76L699.68 532.76" stroke="#132e65" stroke-width="1.5"></path><path d="M699.68 532.76L695.55 685.55" stroke="#132e65" stroke-width="1.5"></path><path d="M699.68 532.76L852.16 555.08" stroke="#132e65" stroke-width="1.5"></path><path d="M695.55 685.55L695.55 685.55" stroke="#132e65" stroke-width="1.5"></path><path d="M695.55 685.55L795.53 684.16" stroke="#132e65" stroke-width="1.5"></path><path d="M695.55 685.55L710.94 801.34" stroke="#132e65" stroke-width="1.5"></path><path d="M710.94 801.34L710.94 801.34" stroke="#132e65" stroke-width="1.5"></path><path d="M710.94 801.34L834.14 815.47" stroke="#132e65" stroke-width="1.5"></path><path d="M659.1 1007.83L659.1 1007.83" stroke="#132e65" stroke-width="1.5"></path><path d="M659.1 1007.83L861.36 967.04" stroke="#132e65" stroke-width="1.5"></path><path d="M659.1 1007.83L710.94 801.34" stroke="#132e65" stroke-width="1.5"></path><path d="M843.49 105.41L843.49 105.41" stroke="#132e65" stroke-width="1.5"></path><path d="M843.49 105.41L942.94 82.37" stroke="#132e65" stroke-width="1.5"></path><path d="M843.49 105.41L835.98 215.74" stroke="#132e65" stroke-width="1.5"></path><path d="M843.49 105.41L944.26 -48.36" stroke="#132e65" stroke-width="1.5"></path><path d="M843.49 105.41L991.04 231.2" stroke="#132e65" stroke-width="1.5"></path><path d="M843.49 105.41L1107.99 216.22" stroke="#132e65" stroke-width="1.5"></path><path d="M835.98 215.74L835.98 215.74" stroke="#132e65" stroke-width="1.5"></path><path d="M835.98 215.74L991.04 231.2" stroke="#132e65" stroke-width="1.5"></path><path d="M835.98 215.74L942.94 82.37" stroke="#132e65" stroke-width="1.5"></path><path d="M835.98 215.74L849.17 404.15" stroke="#132e65" stroke-width="1.5"></path><path d="M835.98 215.74L986.24 360.05" stroke="#132e65" stroke-width="1.5"></path><path d="M849.17 404.15L849.17 404.15" stroke="#132e65" stroke-width="1.5"></path><path d="M849.17 404.15L939.4 516.31" stroke="#132e65" stroke-width="1.5"></path><path d="M849.17 404.15L986.24 360.05" stroke="#132e65" stroke-width="1.5"></path><path d="M849.17 404.15L852.16 555.08" stroke="#132e65" stroke-width="1.5"></path><path d="M849.17 404.15L699.68 532.76" stroke="#132e65" stroke-width="1.5"></path><path d="M852.16 555.08L852.16 555.08" stroke="#132e65" stroke-width="1.5"></path><path d="M852.16 555.08L939.4 516.31" stroke="#132e65" stroke-width="1.5"></path><path d="M852.16 555.08L795.53 684.16" stroke="#132e65" stroke-width="1.5"></path><path d="M795.53 684.16L795.53 684.16" stroke="#132e65" stroke-width="1.5"></path><path d="M795.53 684.16L834.14 815.47" stroke="#132e65" stroke-width="1.5"></path><path d="M795.53 684.16L710.94 801.34" stroke="#132e65" stroke-width="1.5"></path><path d="M795.53 684.16L699.68 532.76" stroke="#132e65" stroke-width="1.5"></path><path d="M834.14 815.47L834.14 815.47" stroke="#132e65" stroke-width="1.5"></path><path d="M834.14 815.47L861.36 967.04" stroke="#132e65" stroke-width="1.5"></path><path d="M834.14 815.47L695.55 685.55" stroke="#132e65" stroke-width="1.5"></path><path d="M861.36 967.04L861.36 967.04" stroke="#132e65" stroke-width="1.5"></path><path d="M861.36 967.04L952.3 992.43" stroke="#132e65" stroke-width="1.5"></path><path d="M944.26 -48.36L944.26 -48.36" stroke="#132e65" stroke-width="1.5"></path><path d="M944.26 -48.36L942.94 82.37" stroke="#132e65" stroke-width="1.5"></path><path d="M944.26 -48.36L1087.75 -56.2" stroke="#132e65" stroke-width="1.5"></path><path d="M944.26 -48.36L991.04 231.2" stroke="#132e65" stroke-width="1.5"></path><path d="M942.94 82.37L942.94 82.37" stroke="#132e65" stroke-width="1.5"></path><path d="M942.94 82.37L991.04 231.2" stroke="#132e65" stroke-width="1.5"></path><path d="M991.04 231.2L991.04 231.2" stroke="#132e65" stroke-width="1.5"></path><path d="M991.04 231.2L1107.99 216.22" stroke="#132e65" stroke-width="1.5"></path><path d="M991.04 231.2L986.24 360.05" stroke="#132e65" stroke-width="1.5"></path><path d="M991.04 231.2L849.17 404.15" stroke="#132e65" stroke-width="1.5"></path><path d="M986.24 360.05L986.24 360.05" stroke="#132e65" stroke-width="1.5"></path><path d="M986.24 360.05L939.4 516.31" stroke="#132e65" stroke-width="1.5"></path><path d="M986.24 360.05L1160.74 411.02" stroke="#132e65" stroke-width="1.5"></path><path d="M986.24 360.05L1107.99 216.22" stroke="#132e65" stroke-width="1.5"></path><path d="M986.24 360.05L1109.82 511.34" stroke="#132e65" stroke-width="1.5"></path><path d="M939.4 516.31L939.4 516.31" stroke="#132e65" stroke-width="1.5"></path><path d="M952.3 992.43L952.3 992.43" stroke="#132e65" stroke-width="1.5"></path><path d="M952.3 992.43L1089.44 984.5" stroke="#132e65" stroke-width="1.5"></path><path d="M952.3 992.43L834.14 815.47" stroke="#132e65" stroke-width="1.5"></path><path d="M952.3 992.43L1155.92 829.92" stroke="#132e65" stroke-width="1.5"></path><path d="M952.3 992.43L1239.71 980.34" stroke="#132e65" stroke-width="1.5"></path><path d="M952.3 992.43L659.1 1007.83" stroke="#132e65" stroke-width="1.5"></path><path d="M1087.75 -56.2L1087.75 -56.2" stroke="#132e65" stroke-width="1.5"></path><path d="M1087.75 -56.2L1253.13 47.4" stroke="#132e65" stroke-width="1.5"></path><path d="M1107.99 216.22L1107.99 216.22" stroke="#132e65" stroke-width="1.5"></path><path d="M1107.99 216.22L1285.86 260.16" stroke="#132e65" stroke-width="1.5"></path><path d="M1107.99 216.22L1160.74 411.02" stroke="#132e65" stroke-width="1.5"></path><path d="M1107.99 216.22L942.94 82.37" stroke="#132e65" stroke-width="1.5"></path><path d="M1107.99 216.22L1253.91 380.82" stroke="#132e65" stroke-width="1.5"></path><path d="M1160.74 411.02L1160.74 411.02" stroke="#132e65" stroke-width="1.5"></path><path d="M1160.74 411.02L1253.91 380.82" stroke="#132e65" stroke-width="1.5"></path><path d="M1160.74 411.02L1109.82 511.34" stroke="#132e65" stroke-width="1.5"></path><path d="M1160.74 411.02L1281.39 559.9" stroke="#132e65" stroke-width="1.5"></path><path d="M1160.74 411.02L1285.86 260.16" stroke="#132e65" stroke-width="1.5"></path><path d="M1109.82 511.34L1109.82 511.34" stroke="#132e65" stroke-width="1.5"></path><path d="M1109.82 511.34L939.4 516.31" stroke="#132e65" stroke-width="1.5"></path><path d="M1109.82 511.34L1146.83 684.06" stroke="#132e65" stroke-width="1.5"></path><path d="M1109.82 511.34L1281.39 559.9" stroke="#132e65" stroke-width="1.5"></path><path d="M1109.82 511.34L1253.91 380.82" stroke="#132e65" stroke-width="1.5"></path><path d="M1146.83 684.06L1146.83 684.06" stroke="#132e65" stroke-width="1.5"></path><path d="M1146.83 684.06L1242.29 662.62" stroke="#132e65" stroke-width="1.5"></path><path d="M1146.83 684.06L1155.92 829.92" stroke="#132e65" stroke-width="1.5"></path><path d="M1146.83 684.06L1281.39 559.9" stroke="#132e65" stroke-width="1.5"></path><path d="M1146.83 684.06L1300.19 847.23" stroke="#132e65" stroke-width="1.5"></path><path d="M1146.83 684.06L939.4 516.31" stroke="#132e65" stroke-width="1.5"></path><path d="M1155.92 829.92L1155.92 829.92" stroke="#132e65" stroke-width="1.5"></path><path d="M1155.92 829.92L1300.19 847.23" stroke="#132e65" stroke-width="1.5"></path><path d="M1089.44 984.5L1089.44 984.5" stroke="#132e65" stroke-width="1.5"></path><path d="M1089.44 984.5L1239.71 980.34" stroke="#132e65" stroke-width="1.5"></path><path d="M1310.91 -92.46L1310.91 -92.46" stroke="#132e65" stroke-width="1.5"></path><path d="M1310.91 -92.46L1422.45 -87.04" stroke="#132e65" stroke-width="1.5"></path><path d="M1310.91 -92.46L1253.13 47.4" stroke="#132e65" stroke-width="1.5"></path><path d="M1253.13 47.4L1253.13 47.4" stroke="#132e65" stroke-width="1.5"></path><path d="M1253.13 47.4L1403.36 45.68" stroke="#132e65" stroke-width="1.5"></path><path d="M1285.86 260.16L1285.86 260.16" stroke="#132e65" stroke-width="1.5"></path><path d="M1285.86 260.16L1253.91 380.82" stroke="#132e65" stroke-width="1.5"></path><path d="M1285.86 260.16L1430.53 220.62" stroke="#132e65" stroke-width="1.5"></path><path d="M1285.86 260.16L1427.12 368.73" stroke="#132e65" stroke-width="1.5"></path><path d="M1253.91 380.82L1253.91 380.82" stroke="#132e65" stroke-width="1.5"></path><path d="M1253.91 380.82L1427.12 368.73" stroke="#132e65" stroke-width="1.5"></path><path d="M1281.39 559.9L1281.39 559.9" stroke="#132e65" stroke-width="1.5"></path><path d="M1281.39 559.9L1242.29 662.62" stroke="#132e65" stroke-width="1.5"></path><path d="M1281.39 559.9L1398.54 527.27" stroke="#132e65" stroke-width="1.5"></path><path d="M1281.39 559.9L1253.91 380.82" stroke="#132e65" stroke-width="1.5"></path><path d="M1242.29 662.62L1242.29 662.62" stroke="#132e65" stroke-width="1.5"></path><path d="M1242.29 662.62L1427.37 688.96" stroke="#132e65" stroke-width="1.5"></path><path d="M1242.29 662.62L1155.92 829.92" stroke="#132e65" stroke-width="1.5"></path><path d="M1300.19 847.23L1300.19 847.23" stroke="#132e65" stroke-width="1.5"></path><path d="M1300.19 847.23L1433.56 810.01" stroke="#132e65" stroke-width="1.5"></path><path d="M1300.19 847.23L1239.71 980.34" stroke="#132e65" stroke-width="1.5"></path><path d="M1300.19 847.23L1242.29 662.62" stroke="#132e65" stroke-width="1.5"></path><path d="M1239.71 980.34L1239.71 980.34" stroke="#132e65" stroke-width="1.5"></path><path d="M1239.71 980.34L1155.92 829.92" stroke="#132e65" stroke-width="1.5"></path><path d="M1239.71 980.34L1433.95 1011.13" stroke="#132e65" stroke-width="1.5"></path><path d="M1422.45 -87.04L1422.45 -87.04" stroke="#132e65" stroke-width="1.5"></path><path d="M1422.45 -87.04L1403.36 45.68" stroke="#132e65" stroke-width="1.5"></path><path d="M1422.45 -87.04L1584.95 -76.04" stroke="#132e65" stroke-width="1.5"></path><path d="M1422.45 -87.04L1576.2 60.51" stroke="#132e65" stroke-width="1.5"></path><path d="M1403.36 45.68L1403.36 45.68" stroke="#132e65" stroke-width="1.5"></path><path d="M1403.36 45.68L1310.91 -92.46" stroke="#132e65" stroke-width="1.5"></path><path d="M1403.36 45.68L1576.2 60.51" stroke="#132e65" stroke-width="1.5"></path><path d="M1430.53 220.62L1430.53 220.62" stroke="#132e65" stroke-width="1.5"></path><path d="M1430.53 220.62L1542.32 258.95" stroke="#132e65" stroke-width="1.5"></path><path d="M1427.12 368.73L1427.12 368.73" stroke="#132e65" stroke-width="1.5"></path><path d="M1427.12 368.73L1549.67 405.95" stroke="#132e65" stroke-width="1.5"></path><path d="M1427.12 368.73L1430.53 220.62" stroke="#132e65" stroke-width="1.5"></path><path d="M1398.54 527.27L1398.54 527.27" stroke="#132e65" stroke-width="1.5"></path><path d="M1398.54 527.27L1427.12 368.73" stroke="#132e65" stroke-width="1.5"></path><path d="M1398.54 527.27L1427.37 688.96" stroke="#132e65" stroke-width="1.5"></path><path d="M1398.54 527.27L1538.44 648.63" stroke="#132e65" stroke-width="1.5"></path><path d="M1398.54 527.27L1549.67 405.95" stroke="#132e65" stroke-width="1.5"></path><path d="M1398.54 527.27L1596.3 509.39" stroke="#132e65" stroke-width="1.5"></path><path d="M1427.37 688.96L1427.37 688.96" stroke="#132e65" stroke-width="1.5"></path><path d="M1427.37 688.96L1538.44 648.63" stroke="#132e65" stroke-width="1.5"></path><path d="M1427.37 688.96L1433.56 810.01" stroke="#132e65" stroke-width="1.5"></path><path d="M1433.56 810.01L1433.56 810.01" stroke="#132e65" stroke-width="1.5"></path><path d="M1433.95 1011.13L1433.95 1011.13" stroke="#132e65" stroke-width="1.5"></path><path d="M1433.95 1011.13L1552.44 979.93" stroke="#132e65" stroke-width="1.5"></path><path d="M1433.95 1011.13L1433.56 810.01" stroke="#132e65" stroke-width="1.5"></path><path d="M1433.95 1011.13L1300.19 847.23" stroke="#132e65" stroke-width="1.5"></path><path d="M1433.95 1011.13L1571.74 828.42" stroke="#132e65" stroke-width="1.5"></path><path d="M1433.95 1011.13L1427.37 688.96" stroke="#132e65" stroke-width="1.5"></path><path d="M1584.95 -76.04L1584.95 -76.04" stroke="#132e65" stroke-width="1.5"></path><path d="M1584.95 -76.04L1576.2 60.51" stroke="#132e65" stroke-width="1.5"></path><path d="M1584.95 -76.04L1403.36 45.68" stroke="#132e65" stroke-width="1.5"></path><path d="M1576.2 60.51L1576.2 60.51" stroke="#132e65" stroke-width="1.5"></path><path d="M1576.2 60.51L1542.32 258.95" stroke="#132e65" stroke-width="1.5"></path><path d="M1576.2 60.51L1430.53 220.62" stroke="#132e65" stroke-width="1.5"></path><path d="M1542.32 258.95L1542.32 258.95" stroke="#132e65" stroke-width="1.5"></path><path d="M1542.32 258.95L1549.67 405.95" stroke="#132e65" stroke-width="1.5"></path><path d="M1542.32 258.95L1427.12 368.73" stroke="#132e65" stroke-width="1.5"></path><path d="M1549.67 405.95L1549.67 405.95" stroke="#132e65" stroke-width="1.5"></path><path d="M1549.67 405.95L1596.3 509.39" stroke="#132e65" stroke-width="1.5"></path><path d="M1596.3 509.39L1596.3 509.39" stroke="#132e65" stroke-width="1.5"></path><path d="M1596.3 509.39L1538.44 648.63" stroke="#132e65" stroke-width="1.5"></path><path d="M1538.44 648.63L1538.44 648.63" stroke="#132e65" stroke-width="1.5"></path><path d="M1571.74 828.42L1571.74 828.42" stroke="#132e65" stroke-width="1.5"></path><path d="M1571.74 828.42L1433.56 810.01" stroke="#132e65" stroke-width="1.5"></path><path d="M1552.44 979.93L1552.44 979.93" stroke="#132e65" stroke-width="1.5"></path><path d="M1552.44 979.93L1571.74 828.42" stroke="#132e65" stroke-width="1.5"></path><path d="M1552.44 979.93L1433.56 810.01" stroke="#132e65" stroke-width="1.5"></path><circle r="5" cx="-87.64" cy="546.08" fill="#132e65"></circle><circle r="5" cx="-100.75" cy="649.15" fill="#132e65"></circle><circle r="5" cx="-106.66" cy="817.8" fill="#132e65"></circle><circle r="5" cx="-55.82" cy="996.05" fill="#132e65"></circle><circle r="5" cx="67.68" cy="702.2" fill="#132e65"></circle><circle r="5" cx="188.95" cy="526.9" fill="#132e65"></circle><circle r="5" cx="253.37" cy="708.45" fill="#132e65"></circle><circle r="5" cx="217.09" cy="833.18" fill="#132e65"></circle><circle r="5" cx="207.77" cy="968.26" fill="#132e65"></circle><circle r="5" cx="398.73" cy="558.82" fill="#132e65"></circle><circle r="5" cx="344.2" cy="803.9" fill="#132e65"></circle><circle r="5" cx="392.61" cy="992.85" fill="#132e65"></circle><circle r="5" cx="542" cy="366.76" fill="#132e65"></circle><circle r="5" cx="519.19" cy="534.13" fill="#132e65"></circle><circle r="5" cx="498.65" cy="689.73" fill="#132e65"></circle><circle r="5" cx="492.41" cy="794.45" fill="#132e65"></circle><circle r="5" cx="538.15" cy="976.12" fill="#132e65"></circle><circle r="5" cx="659.07" cy="398.4" fill="#132e65"></circle><circle r="5" cx="699.68" cy="532.76" fill="#132e65"></circle><circle r="5" cx="695.55" cy="685.55" fill="#132e65"></circle><circle r="5" cx="710.94" cy="801.34" fill="#132e65"></circle><circle r="5" cx="659.1" cy="1007.83" fill="#132e65"></circle><circle r="5" cx="843.49" cy="105.41" fill="#132e65"></circle><circle r="5" cx="835.98" cy="215.74" fill="#132e65"></circle><circle r="5" cx="849.17" cy="404.15" fill="#132e65"></circle><circle r="5" cx="852.16" cy="555.08" fill="#132e65"></circle><circle r="5" cx="795.53" cy="684.16" fill="#132e65"></circle><circle r="5" cx="834.14" cy="815.47" fill="#132e65"></circle><circle r="5" cx="861.36" cy="967.04" fill="#132e65"></circle><circle r="5" cx="944.26" cy="-48.36" fill="#132e65"></circle><circle r="5" cx="942.94" cy="82.37" fill="#132e65"></circle><circle r="5" cx="991.04" cy="231.2" fill="#132e65"></circle><circle r="5" cx="986.24" cy="360.05" fill="#132e65"></circle><circle r="5" cx="939.4" cy="516.31" fill="#132e65"></circle><circle r="5" cx="952.3" cy="992.43" fill="#132e65"></circle><circle r="5" cx="1087.75" cy="-56.2" fill="#132e65"></circle><circle r="5" cx="1107.99" cy="216.22" fill="#132e65"></circle><circle r="5" cx="1160.74" cy="411.02" fill="#132e65"></circle><circle r="5" cx="1109.82" cy="511.34" fill="#132e65"></circle><circle r="5" cx="1146.83" cy="684.06" fill="#132e65"></circle><circle r="5" cx="1155.92" cy="829.92" fill="#132e65"></circle><circle r="5" cx="1089.44" cy="984.5" fill="#132e65"></circle><circle r="5" cx="1310.91" cy="-92.46" fill="#132e65"></circle><circle r="5" cx="1253.13" cy="47.4" fill="#132e65"></circle><circle r="5" cx="1285.86" cy="260.16" fill="#132e65"></circle><circle r="5" cx="1253.91" cy="380.82" fill="#132e65"></circle><circle r="5" cx="1281.39" cy="559.9" fill="#132e65"></circle><circle r="5" cx="1242.29" cy="662.62" fill="#132e65"></circle><circle r="5" cx="1300.19" cy="847.23" fill="#132e65"></circle><circle r="5" cx="1239.71" cy="980.34" fill="#132e65"></circle><circle r="5" cx="1422.45" cy="-87.04" fill="#132e65"></circle><circle r="5" cx="1403.36" cy="45.68" fill="#132e65"></circle><circle r="5" cx="1430.53" cy="220.62" fill="#132e65"></circle><circle r="5" cx="1427.12" cy="368.73" fill="#132e65"></circle><circle r="5" cx="1398.54" cy="527.27" fill="#132e65"></circle><circle r="5" cx="1427.37" cy="688.96" fill="#132e65"></circle><circle r="5" cx="1433.56" cy="810.01" fill="#132e65"></circle><circle r="5" cx="1433.95" cy="1011.13" fill="#132e65"></circle><circle r="5" cx="1584.95" cy="-76.04" fill="#132e65"></circle><circle r="5" cx="1576.2" cy="60.51" fill="#132e65"></circle><circle r="5" cx="1542.32" cy="258.95" fill="#132e65"></circle><circle r="5" cx="1549.67" cy="405.95" fill="#132e65"></circle><circle r="5" cx="1596.3" cy="509.39" fill="#132e65"></circle><circle r="5" cx="1538.44" cy="648.63" fill="#132e65"></circle><circle r="5" cx="1571.74" cy="828.42" fill="#132e65"></circle><circle r="5" cx="1552.44" cy="979.93" fill="#132e65"></circle><path d="M-79.72 961.1L-79.72 961.1" stroke="hsl(228.5, 77.2%, 51.5%)" stroke-width="1.5"></path><path d="M-79.72 961.1L-53.64 857.16" stroke="hsl(228.5, 77.2%, 51.5%)" stroke-width="1.5"></path><path d="M-79.72 961.1L106.5 944.72" stroke="hsl(228.5, 77.2%, 51.5%)" stroke-width="1.5"></path><path d="M-79.72 961.1L72.86 795.44" stroke="hsl(228.5, 77.2%, 51.5%)" stroke-width="1.5"></path><path d="M-79.72 961.1L-74.57 704.58" stroke="hsl(228.5, 77.2%, 51.5%)" stroke-width="1.5"></path><path d="M-79.72 961.1L48.32 654.08" stroke="hsl(228.5, 77.2%, 51.5%)" stroke-width="1.5"></path><path d="M-79.72 961.1L241.49 820.27" stroke="hsl(228.5, 77.2%, 51.5%)" stroke-width="1.5"></path><path d="M342.95 1004.59L342.95 1004.59" stroke="hsl(228.5, 77.2%, 51.5%)" stroke-width="1.5"></path><path d="M342.95 1004.59L350.29 849.25" stroke="hsl(228.5, 77.2%, 51.5%)" stroke-width="1.5"></path><path d="M342.95 1004.59L536.76 967.5" stroke="hsl(228.5, 77.2%, 51.5%)" stroke-width="1.5"></path><path d="M536.76 967.5L536.76 967.5" stroke="hsl(228.5, 77.2%, 51.5%)" stroke-width="1.5"></path><path d="M536.76 967.5L638.94 1004.62" stroke="hsl(228.5, 77.2%, 51.5%)" stroke-width="1.5"></path><path d="M536.76 967.5L561.68 797.8" stroke="hsl(228.5, 77.2%, 51.5%)" stroke-width="1.5"></path><path d="M697.62 830.15L697.62 830.15" stroke="hsl(228.5, 77.2%, 51.5%)" stroke-width="1.5"></path><path d="M697.62 830.15L561.68 797.8" stroke="hsl(228.5, 77.2%, 51.5%)" stroke-width="1.5"></path><path d="M697.62 830.15L832.49 791.05" stroke="hsl(228.5, 77.2%, 51.5%)" stroke-width="1.5"></path><path d="M697.62 830.15L822.51 698.66" stroke="hsl(228.5, 77.2%, 51.5%)" stroke-width="1.5"></path><path d="M822.51 698.66L822.51 698.66" stroke="hsl(228.5, 77.2%, 51.5%)" stroke-width="1.5"></path><path d="M822.51 698.66L832.49 791.05" stroke="hsl(228.5, 77.2%, 51.5%)" stroke-width="1.5"></path><path d="M822.51 698.66L980.57 710.15" stroke="hsl(228.5, 77.2%, 51.5%)" stroke-width="1.5"></path><path d="M822.51 698.66L638.37 650.72" stroke="hsl(228.5, 77.2%, 51.5%)" stroke-width="1.5"></path><path d="M979.01 495.87L979.01 495.87" stroke="hsl(228.5, 77.2%, 51.5%)" stroke-width="1.5"></path><path d="M979.01 495.87L855.43 491.4" stroke="hsl(228.5, 77.2%, 51.5%)" stroke-width="1.5"></path><path d="M979.01 495.87L990.69 370.67" stroke="hsl(228.5, 77.2%, 51.5%)" stroke-width="1.5"></path><path d="M979.01 495.87L1100.22 559.95" stroke="hsl(228.5, 77.2%, 51.5%)" stroke-width="1.5"></path><path d="M1100.22 559.95L1100.22 559.95" stroke="hsl(228.5, 77.2%, 51.5%)" stroke-width="1.5"></path><path d="M1100.22 559.95L1158.94 669.24" stroke="hsl(228.5, 77.2%, 51.5%)" stroke-width="1.5"></path><path d="M1100.22 559.95L1255.32 527.73" stroke="hsl(228.5, 77.2%, 51.5%)" stroke-width="1.5"></path><path d="M1295.71 73.28L1295.71 73.28" stroke="hsl(228.5, 77.2%, 51.5%)" stroke-width="1.5"></path><path d="M1295.71 73.28L1425.86 109.79" stroke="hsl(228.5, 77.2%, 51.5%)" stroke-width="1.5"></path><path d="M1295.71 73.28L1264.84 221.57" stroke="hsl(228.5, 77.2%, 51.5%)" stroke-width="1.5"></path><path d="M1295.71 73.28L1283.3 -78.13" stroke="hsl(228.5, 77.2%, 51.5%)" stroke-width="1.5"></path><path d="M1295.71 73.28L1153.77 -43.21" stroke="hsl(228.5, 77.2%, 51.5%)" stroke-width="1.5"></path><path d="M1248.09 353.09L1248.09 353.09" stroke="hsl(228.5, 77.2%, 51.5%)" stroke-width="1.5"></path><path d="M1248.09 353.09L1135.84 361.73" stroke="hsl(228.5, 77.2%, 51.5%)" stroke-width="1.5"></path><path d="M1248.09 353.09L1264.84 221.57" stroke="hsl(228.5, 77.2%, 51.5%)" stroke-width="1.5"></path><path d="M1248.09 353.09L1125.19 239.02" stroke="hsl(228.5, 77.2%, 51.5%)" stroke-width="1.5"></path><path d="M1248.09 353.09L1255.32 527.73" stroke="hsl(228.5, 77.2%, 51.5%)" stroke-width="1.5"></path><path d="M1271.56 830.97L1271.56 830.97" stroke="hsl(228.5, 77.2%, 51.5%)" stroke-width="1.5"></path><path d="M1271.56 830.97L1413.23 795.24" stroke="hsl(228.5, 77.2%, 51.5%)" stroke-width="1.5"></path><path d="M1271.56 830.97L1276.4 990.88" stroke="hsl(228.5, 77.2%, 51.5%)" stroke-width="1.5"></path><path d="M1538.5 239.7L1538.5 239.7" stroke="hsl(228.5, 77.2%, 51.5%)" stroke-width="1.5"></path><path d="M1538.5 239.7L1442.92 240.86" stroke="hsl(228.5, 77.2%, 51.5%)" stroke-width="1.5"></path><path d="M1538.5 239.7L1596.68 102.35" stroke="hsl(228.5, 77.2%, 51.5%)" stroke-width="1.5"></path><path d="M1538.5 239.7L1425.86 109.79" stroke="hsl(228.5, 77.2%, 51.5%)" stroke-width="1.5"></path><path d="M1581.69 407.23L1581.69 407.23" stroke="hsl(228.5, 77.2%, 51.5%)" stroke-width="1.5"></path><path d="M1581.69 407.23L1563.89 522.03" stroke="hsl(228.5, 77.2%, 51.5%)" stroke-width="1.5"></path><path d="M1581.69 407.23L1450.75 397.44" stroke="hsl(228.5, 77.2%, 51.5%)" stroke-width="1.5"></path><path d="M1581.69 407.23L1538.5 239.7" stroke="hsl(228.5, 77.2%, 51.5%)" stroke-width="1.5"></path><path d="M1567.84 690.39L1567.84 690.39" stroke="hsl(228.5, 77.2%, 51.5%)" stroke-width="1.5"></path><path d="M1567.84 690.39L1599.4 810.25" stroke="hsl(228.5, 77.2%, 51.5%)" stroke-width="1.5"></path><path d="M1567.84 690.39L1563.89 522.03" stroke="hsl(228.5, 77.2%, 51.5%)" stroke-width="1.5"></path><path d="M1567.84 690.39L1394.73 665.51" stroke="hsl(228.5, 77.2%, 51.5%)" stroke-width="1.5"></path><path d="M1567.84 690.39L1413.23 795.24" stroke="hsl(228.5, 77.2%, 51.5%)" stroke-width="1.5"></path><path d="M1567.84 690.39L1424.06 519.45" stroke="hsl(228.5, 77.2%, 51.5%)" stroke-width="1.5"></path><path d="M-74.57 704.58L-74.57 704.58" stroke="hsl(228.5, 77.2%, 51.5%)" stroke-width="1.5"></path><path d="M-74.57 704.58L48.32 654.08" stroke="hsl(228.5, 77.2%, 51.5%)" stroke-width="1.5"></path><path d="M-74.57 704.58L-53.64 857.16" stroke="hsl(228.5, 77.2%, 51.5%)" stroke-width="1.5"></path><path d="M-53.64 857.16L-53.64 857.16" stroke="hsl(228.5, 77.2%, 51.5%)" stroke-width="1.5"></path><path d="M-53.64 857.16L72.86 795.44" stroke="hsl(228.5, 77.2%, 51.5%)" stroke-width="1.5"></path><path d="M-53.64 857.16L106.5 944.72" stroke="hsl(228.5, 77.2%, 51.5%)" stroke-width="1.5"></path><path d="M-53.64 857.16L48.32 654.08" stroke="hsl(228.5, 77.2%, 51.5%)" stroke-width="1.5"></path><path d="M-53.64 857.16L194.91 697.08" stroke="hsl(228.5, 77.2%, 51.5%)" stroke-width="1.5"></path><path d="M48.32 654.08L48.32 654.08" stroke="hsl(228.5, 77.2%, 51.5%)" stroke-width="1.5"></path><path d="M48.32 654.08L72.86 795.44" stroke="hsl(228.5, 77.2%, 51.5%)" stroke-width="1.5"></path><path d="M48.32 654.08L194.91 697.08" stroke="hsl(228.5, 77.2%, 51.5%)" stroke-width="1.5"></path><path d="M72.86 795.44L72.86 795.44" stroke="hsl(228.5, 77.2%, 51.5%)" stroke-width="1.5"></path><path d="M72.86 795.44L106.5 944.72" stroke="hsl(228.5, 77.2%, 51.5%)" stroke-width="1.5"></path><path d="M106.5 944.72L106.5 944.72" stroke="hsl(228.5, 77.2%, 51.5%)" stroke-width="1.5"></path><path d="M106.5 944.72L241.49 820.27" stroke="hsl(228.5, 77.2%, 51.5%)" stroke-width="1.5"></path><path d="M194.91 697.08L194.91 697.08" stroke="hsl(228.5, 77.2%, 51.5%)" stroke-width="1.5"></path><path d="M194.91 697.08L241.49 820.27" stroke="hsl(228.5, 77.2%, 51.5%)" stroke-width="1.5"></path><path d="M194.91 697.08L72.86 795.44" stroke="hsl(228.5, 77.2%, 51.5%)" stroke-width="1.5"></path><path d="M194.91 697.08L356.41 688.19" stroke="hsl(228.5, 77.2%, 51.5%)" stroke-width="1.5"></path><path d="M241.49 820.27L241.49 820.27" stroke="hsl(228.5, 77.2%, 51.5%)" stroke-width="1.5"></path><path d="M241.49 820.27L350.29 849.25" stroke="hsl(228.5, 77.2%, 51.5%)" stroke-width="1.5"></path><path d="M241.49 820.27L72.86 795.44" stroke="hsl(228.5, 77.2%, 51.5%)" stroke-width="1.5"></path><path d="M241.49 820.27L356.41 688.19" stroke="hsl(228.5, 77.2%, 51.5%)" stroke-width="1.5"></path><path d="M356.41 688.19L356.41 688.19" stroke="hsl(228.5, 77.2%, 51.5%)" stroke-width="1.5"></path><path d="M356.41 688.19L496.2 674.01" stroke="hsl(228.5, 77.2%, 51.5%)" stroke-width="1.5"></path><path d="M356.41 688.19L350.29 849.25" stroke="hsl(228.5, 77.2%, 51.5%)" stroke-width="1.5"></path><path d="M356.41 688.19L561.68 797.8" stroke="hsl(228.5, 77.2%, 51.5%)" stroke-width="1.5"></path><path d="M356.41 688.19L638.37 650.72" stroke="hsl(228.5, 77.2%, 51.5%)" stroke-width="1.5"></path><path d="M350.29 849.25L350.29 849.25" stroke="hsl(228.5, 77.2%, 51.5%)" stroke-width="1.5"></path><path d="M350.29 849.25L194.91 697.08" stroke="hsl(228.5, 77.2%, 51.5%)" stroke-width="1.5"></path><path d="M496.2 674.01L496.2 674.01" stroke="hsl(228.5, 77.2%, 51.5%)" stroke-width="1.5"></path><path d="M496.2 674.01L561.68 797.8" stroke="hsl(228.5, 77.2%, 51.5%)" stroke-width="1.5"></path><path d="M496.2 674.01L638.37 650.72" stroke="hsl(228.5, 77.2%, 51.5%)" stroke-width="1.5"></path><path d="M496.2 674.01L659.82 526.93" stroke="hsl(228.5, 77.2%, 51.5%)" stroke-width="1.5"></path><path d="M561.68 797.8L561.68 797.8" stroke="hsl(228.5, 77.2%, 51.5%)" stroke-width="1.5"></path><path d="M659.82 526.93L659.82 526.93" stroke="hsl(228.5, 77.2%, 51.5%)" stroke-width="1.5"></path><path d="M659.82 526.93L638.37 650.72" stroke="hsl(228.5, 77.2%, 51.5%)" stroke-width="1.5"></path><path d="M638.37 650.72L638.37 650.72" stroke="hsl(228.5, 77.2%, 51.5%)" stroke-width="1.5"></path><path d="M638.94 1004.62L638.94 1004.62" stroke="hsl(228.5, 77.2%, 51.5%)" stroke-width="1.5"></path><path d="M638.94 1004.62L697.62 830.15" stroke="hsl(228.5, 77.2%, 51.5%)" stroke-width="1.5"></path><path d="M855.43 491.4L855.43 491.4" stroke="hsl(228.5, 77.2%, 51.5%)" stroke-width="1.5"></path><path d="M855.43 491.4L990.69 370.67" stroke="hsl(228.5, 77.2%, 51.5%)" stroke-width="1.5"></path><path d="M855.43 491.4L659.82 526.93" stroke="hsl(228.5, 77.2%, 51.5%)" stroke-width="1.5"></path><path d="M855.43 491.4L822.51 698.66" stroke="hsl(228.5, 77.2%, 51.5%)" stroke-width="1.5"></path><path d="M855.43 491.4L980.57 710.15" stroke="hsl(228.5, 77.2%, 51.5%)" stroke-width="1.5"></path><path d="M832.49 791.05L832.49 791.05" stroke="hsl(228.5, 77.2%, 51.5%)" stroke-width="1.5"></path><path d="M832.49 791.05L957.56 838.72" stroke="hsl(228.5, 77.2%, 51.5%)" stroke-width="1.5"></path><path d="M832.49 791.05L980.57 710.15" stroke="hsl(228.5, 77.2%, 51.5%)" stroke-width="1.5"></path><path d="M856.14 970.66L856.14 970.66" stroke="hsl(228.5, 77.2%, 51.5%)" stroke-width="1.5"></path><path d="M856.14 970.66L957.56 838.72" stroke="hsl(228.5, 77.2%, 51.5%)" stroke-width="1.5"></path><path d="M856.14 970.66L832.49 791.05" stroke="hsl(228.5, 77.2%, 51.5%)" stroke-width="1.5"></path><path d="M990.69 370.67L990.69 370.67" stroke="hsl(228.5, 77.2%, 51.5%)" stroke-width="1.5"></path><path d="M980.57 710.15L980.57 710.15" stroke="hsl(228.5, 77.2%, 51.5%)" stroke-width="1.5"></path><path d="M980.57 710.15L957.56 838.72" stroke="hsl(228.5, 77.2%, 51.5%)" stroke-width="1.5"></path><path d="M980.57 710.15L1100.32 809.62" stroke="hsl(228.5, 77.2%, 51.5%)" stroke-width="1.5"></path><path d="M980.57 710.15L1158.94 669.24" stroke="hsl(228.5, 77.2%, 51.5%)" stroke-width="1.5"></path><path d="M980.57 710.15L1100.22 559.95" stroke="hsl(228.5, 77.2%, 51.5%)" stroke-width="1.5"></path><path d="M957.56 838.72L957.56 838.72" stroke="hsl(228.5, 77.2%, 51.5%)" stroke-width="1.5"></path><path d="M957.56 838.72L1100.32 809.62" stroke="hsl(228.5, 77.2%, 51.5%)" stroke-width="1.5"></path><path d="M1153.77 -43.21L1153.77 -43.21" stroke="hsl(228.5, 77.2%, 51.5%)" stroke-width="1.5"></path><path d="M1153.77 -43.21L1283.3 -78.13" stroke="hsl(228.5, 77.2%, 51.5%)" stroke-width="1.5"></path><path d="M1153.77 -43.21L1420.31 -63.27" stroke="hsl(228.5, 77.2%, 51.5%)" stroke-width="1.5"></path><path d="M1153.77 -43.21L1125.19 239.02" stroke="hsl(228.5, 77.2%, 51.5%)" stroke-width="1.5"></path><path d="M1125.19 239.02L1125.19 239.02" stroke="hsl(228.5, 77.2%, 51.5%)" stroke-width="1.5"></path><path d="M1125.19 239.02L1135.84 361.73" stroke="hsl(228.5, 77.2%, 51.5%)" stroke-width="1.5"></path><path d="M1125.19 239.02L1264.84 221.57" stroke="hsl(228.5, 77.2%, 51.5%)" stroke-width="1.5"></path><path d="M1135.84 361.73L1135.84 361.73" stroke="hsl(228.5, 77.2%, 51.5%)" stroke-width="1.5"></path><path d="M1135.84 361.73L990.69 370.67" stroke="hsl(228.5, 77.2%, 51.5%)" stroke-width="1.5"></path><path d="M1135.84 361.73L1264.84 221.57" stroke="hsl(228.5, 77.2%, 51.5%)" stroke-width="1.5"></path><path d="M1135.84 361.73L1100.22 559.95" stroke="hsl(228.5, 77.2%, 51.5%)" stroke-width="1.5"></path><path d="M1158.94 669.24L1158.94 669.24" stroke="hsl(228.5, 77.2%, 51.5%)" stroke-width="1.5"></path><path d="M1158.94 669.24L1272.14 645.93" stroke="hsl(228.5, 77.2%, 51.5%)" stroke-width="1.5"></path><path d="M1158.94 669.24L1100.32 809.62" stroke="hsl(228.5, 77.2%, 51.5%)" stroke-width="1.5"></path><path d="M1158.94 669.24L1255.32 527.73" stroke="hsl(228.5, 77.2%, 51.5%)" stroke-width="1.5"></path><path d="M1100.32 809.62L1100.32 809.62" stroke="hsl(228.5, 77.2%, 51.5%)" stroke-width="1.5"></path><path d="M1100.32 809.62L1271.56 830.97" stroke="hsl(228.5, 77.2%, 51.5%)" stroke-width="1.5"></path><path d="M1100.32 809.62L1104.46 991.34" stroke="hsl(228.5, 77.2%, 51.5%)" stroke-width="1.5"></path><path d="M1104.46 991.34L1104.46 991.34" stroke="hsl(228.5, 77.2%, 51.5%)" stroke-width="1.5"></path><path d="M1104.46 991.34L1276.4 990.88" stroke="hsl(228.5, 77.2%, 51.5%)" stroke-width="1.5"></path><path d="M1104.46 991.34L957.56 838.72" stroke="hsl(228.5, 77.2%, 51.5%)" stroke-width="1.5"></path><path d="M1104.46 991.34L1271.56 830.97" stroke="hsl(228.5, 77.2%, 51.5%)" stroke-width="1.5"></path><path d="M1283.3 -78.13L1283.3 -78.13" stroke="hsl(228.5, 77.2%, 51.5%)" stroke-width="1.5"></path><path d="M1283.3 -78.13L1420.31 -63.27" stroke="hsl(228.5, 77.2%, 51.5%)" stroke-width="1.5"></path><path d="M1283.3 -78.13L1425.86 109.79" stroke="hsl(228.5, 77.2%, 51.5%)" stroke-width="1.5"></path><path d="M1283.3 -78.13L1582.27 -95.84" stroke="hsl(228.5, 77.2%, 51.5%)" stroke-width="1.5"></path><path d="M1283.3 -78.13L1264.84 221.57" stroke="hsl(228.5, 77.2%, 51.5%)" stroke-width="1.5"></path><path d="M1264.84 221.57L1264.84 221.57" stroke="hsl(228.5, 77.2%, 51.5%)" stroke-width="1.5"></path><path d="M1264.84 221.57L1442.92 240.86" stroke="hsl(228.5, 77.2%, 51.5%)" stroke-width="1.5"></path><path d="M1264.84 221.57L1425.86 109.79" stroke="hsl(228.5, 77.2%, 51.5%)" stroke-width="1.5"></path><path d="M1255.32 527.73L1255.32 527.73" stroke="hsl(228.5, 77.2%, 51.5%)" stroke-width="1.5"></path><path d="M1255.32 527.73L1272.14 645.93" stroke="hsl(228.5, 77.2%, 51.5%)" stroke-width="1.5"></path><path d="M1255.32 527.73L1424.06 519.45" stroke="hsl(228.5, 77.2%, 51.5%)" stroke-width="1.5"></path><path d="M1272.14 645.93L1272.14 645.93" stroke="hsl(228.5, 77.2%, 51.5%)" stroke-width="1.5"></path><path d="M1272.14 645.93L1394.73 665.51" stroke="hsl(228.5, 77.2%, 51.5%)" stroke-width="1.5"></path><path d="M1272.14 645.93L1271.56 830.97" stroke="hsl(228.5, 77.2%, 51.5%)" stroke-width="1.5"></path><path d="M1272.14 645.93L1100.22 559.95" stroke="hsl(228.5, 77.2%, 51.5%)" stroke-width="1.5"></path><path d="M1272.14 645.93L1424.06 519.45" stroke="hsl(228.5, 77.2%, 51.5%)" stroke-width="1.5"></path><path d="M1276.4 990.88L1276.4 990.88" stroke="hsl(228.5, 77.2%, 51.5%)" stroke-width="1.5"></path><path d="M1276.4 990.88L1441.25 950.11" stroke="hsl(228.5, 77.2%, 51.5%)" stroke-width="1.5"></path><path d="M1420.31 -63.27L1420.31 -63.27" stroke="hsl(228.5, 77.2%, 51.5%)" stroke-width="1.5"></path><path d="M1420.31 -63.27L1582.27 -95.84" stroke="hsl(228.5, 77.2%, 51.5%)" stroke-width="1.5"></path><path d="M1420.31 -63.27L1425.86 109.79" stroke="hsl(228.5, 77.2%, 51.5%)" stroke-width="1.5"></path><path d="M1420.31 -63.27L1295.71 73.28" stroke="hsl(228.5, 77.2%, 51.5%)" stroke-width="1.5"></path><path d="M1420.31 -63.27L1596.68 102.35" stroke="hsl(228.5, 77.2%, 51.5%)" stroke-width="1.5"></path><path d="M1425.86 109.79L1425.86 109.79" stroke="hsl(228.5, 77.2%, 51.5%)" stroke-width="1.5"></path><path d="M1425.86 109.79L1442.92 240.86" stroke="hsl(228.5, 77.2%, 51.5%)" stroke-width="1.5"></path><path d="M1425.86 109.79L1596.68 102.35" stroke="hsl(228.5, 77.2%, 51.5%)" stroke-width="1.5"></path><path d="M1442.92 240.86L1442.92 240.86" stroke="hsl(228.5, 77.2%, 51.5%)" stroke-width="1.5"></path><path d="M1442.92 240.86L1450.75 397.44" stroke="hsl(228.5, 77.2%, 51.5%)" stroke-width="1.5"></path><path d="M1450.75 397.44L1450.75 397.44" stroke="hsl(228.5, 77.2%, 51.5%)" stroke-width="1.5"></path><path d="M1450.75 397.44L1424.06 519.45" stroke="hsl(228.5, 77.2%, 51.5%)" stroke-width="1.5"></path><path d="M1424.06 519.45L1424.06 519.45" stroke="hsl(228.5, 77.2%, 51.5%)" stroke-width="1.5"></path><path d="M1424.06 519.45L1563.89 522.03" stroke="hsl(228.5, 77.2%, 51.5%)" stroke-width="1.5"></path><path d="M1424.06 519.45L1394.73 665.51" stroke="hsl(228.5, 77.2%, 51.5%)" stroke-width="1.5"></path><path d="M1424.06 519.45L1581.69 407.23" stroke="hsl(228.5, 77.2%, 51.5%)" stroke-width="1.5"></path><path d="M1394.73 665.51L1394.73 665.51" stroke="hsl(228.5, 77.2%, 51.5%)" stroke-width="1.5"></path><path d="M1394.73 665.51L1413.23 795.24" stroke="hsl(228.5, 77.2%, 51.5%)" stroke-width="1.5"></path><path d="M1394.73 665.51L1255.32 527.73" stroke="hsl(228.5, 77.2%, 51.5%)" stroke-width="1.5"></path><path d="M1394.73 665.51L1271.56 830.97" stroke="hsl(228.5, 77.2%, 51.5%)" stroke-width="1.5"></path><path d="M1413.23 795.24L1413.23 795.24" stroke="hsl(228.5, 77.2%, 51.5%)" stroke-width="1.5"></path><path d="M1413.23 795.24L1441.25 950.11" stroke="hsl(228.5, 77.2%, 51.5%)" stroke-width="1.5"></path><path d="M1441.25 950.11L1441.25 950.11" stroke="hsl(228.5, 77.2%, 51.5%)" stroke-width="1.5"></path><path d="M1441.25 950.11L1567.71 985.32" stroke="hsl(228.5, 77.2%, 51.5%)" stroke-width="1.5"></path><path d="M1582.27 -95.84L1582.27 -95.84" stroke="hsl(228.5, 77.2%, 51.5%)" stroke-width="1.5"></path><path d="M1582.27 -95.84L1596.68 102.35" stroke="hsl(228.5, 77.2%, 51.5%)" stroke-width="1.5"></path><path d="M1596.68 102.35L1596.68 102.35" stroke="hsl(228.5, 77.2%, 51.5%)" stroke-width="1.5"></path><path d="M1563.89 522.03L1563.89 522.03" stroke="hsl(228.5, 77.2%, 51.5%)" stroke-width="1.5"></path><path d="M1563.89 522.03L1450.75 397.44" stroke="hsl(228.5, 77.2%, 51.5%)" stroke-width="1.5"></path><path d="M1599.4 810.25L1599.4 810.25" stroke="hsl(228.5, 77.2%, 51.5%)" stroke-width="1.5"></path><path d="M1599.4 810.25L1567.71 985.32" stroke="hsl(228.5, 77.2%, 51.5%)" stroke-width="1.5"></path><path d="M1599.4 810.25L1413.23 795.24" stroke="hsl(228.5, 77.2%, 51.5%)" stroke-width="1.5"></path><path d="M1599.4 810.25L1441.25 950.11" stroke="hsl(228.5, 77.2%, 51.5%)" stroke-width="1.5"></path><path d="M1599.4 810.25L1394.73 665.51" stroke="hsl(228.5, 77.2%, 51.5%)" stroke-width="1.5"></path><path d="M1567.71 985.32L1567.71 985.32" stroke="hsl(228.5, 77.2%, 51.5%)" stroke-width="1.5"></path><path d="M1567.71 985.32L1413.23 795.24" stroke="hsl(228.5, 77.2%, 51.5%)" stroke-width="1.5"></path><circle r="25" cx="-79.72" cy="961.1" fill="url(&quot;#SvgjsRadialGradient1434&quot;)"></circle><circle r="25" cx="342.95" cy="1004.59" fill="url(&quot;#SvgjsRadialGradient1434&quot;)"></circle><circle r="25" cx="536.76" cy="967.5" fill="url(&quot;#SvgjsRadialGradient1434&quot;)"></circle><circle r="25" cx="697.62" cy="830.15" fill="url(&quot;#SvgjsRadialGradient1434&quot;)"></circle><circle r="25" cx="822.51" cy="698.66" fill="url(&quot;#SvgjsRadialGradient1434&quot;)"></circle><circle r="25" cx="979.01" cy="495.87" fill="url(&quot;#SvgjsRadialGradient1434&quot;)"></circle><circle r="25" cx="1100.22" cy="559.95" fill="url(&quot;#SvgjsRadialGradient1434&quot;)"></circle><circle r="25" cx="1295.71" cy="73.28" fill="url(&quot;#SvgjsRadialGradient1434&quot;)"></circle><circle r="25" cx="1248.09" cy="353.09" fill="url(&quot;#SvgjsRadialGradient1434&quot;)"></circle><circle r="25" cx="1271.56" cy="830.97" fill="url(&quot;#SvgjsRadialGradient1434&quot;)"></circle><circle r="25" cx="1538.5" cy="239.7" fill="url(&quot;#SvgjsRadialGradient1434&quot;)"></circle><circle r="25" cx="1581.69" cy="407.23" fill="url(&quot;#SvgjsRadialGradient1434&quot;)"></circle><circle r="25" cx="1567.84" cy="690.39" fill="url(&quot;#SvgjsRadialGradient1434&quot;)"></circle><circle r="5" cx="-74.57" cy="704.58" fill="#8b9ad9"></circle><circle r="5" cx="-53.64" cy="857.16" fill="#8b9ad9"></circle><circle r="5" cx="48.32" cy="654.08" fill="#8b9ad9"></circle><circle r="5" cx="72.86" cy="795.44" fill="#8b9ad9"></circle><circle r="5" cx="106.5" cy="944.72" fill="#8b9ad9"></circle><circle r="5" cx="194.91" cy="697.08" fill="#8b9ad9"></circle><circle r="5" cx="241.49" cy="820.27" fill="#8b9ad9"></circle><circle r="5" cx="356.41" cy="688.19" fill="#8b9ad9"></circle><circle r="5" cx="350.29" cy="849.25" fill="#8b9ad9"></circle><circle r="5" cx="496.2" cy="674.01" fill="#8b9ad9"></circle><circle r="5" cx="561.68" cy="797.8" fill="#8b9ad9"></circle><circle r="5" cx="659.82" cy="526.93" fill="#8b9ad9"></circle><circle r="5" cx="638.37" cy="650.72" fill="#8b9ad9"></circle><circle r="5" cx="638.94" cy="1004.62" fill="#8b9ad9"></circle><circle r="5" cx="855.43" cy="491.4" fill="#8b9ad9"></circle><circle r="5" cx="832.49" cy="791.05" fill="#8b9ad9"></circle><circle r="5" cx="856.14" cy="970.66" fill="#8b9ad9"></circle><circle r="5" cx="990.69" cy="370.67" fill="#8b9ad9"></circle><circle r="5" cx="980.57" cy="710.15" fill="#8b9ad9"></circle><circle r="5" cx="957.56" cy="838.72" fill="#8b9ad9"></circle><circle r="5" cx="1153.77" cy="-43.21" fill="#8b9ad9"></circle><circle r="5" cx="1125.19" cy="239.02" fill="#8b9ad9"></circle><circle r="5" cx="1135.84" cy="361.73" fill="#8b9ad9"></circle><circle r="5" cx="1158.94" cy="669.24" fill="#8b9ad9"></circle><circle r="5" cx="1100.32" cy="809.62" fill="#8b9ad9"></circle><circle r="5" cx="1104.46" cy="991.34" fill="#8b9ad9"></circle><circle r="5" cx="1283.3" cy="-78.13" fill="#8b9ad9"></circle><circle r="5" cx="1264.84" cy="221.57" fill="#8b9ad9"></circle><circle r="5" cx="1255.32" cy="527.73" fill="#8b9ad9"></circle><circle r="5" cx="1272.14" cy="645.93" fill="#8b9ad9"></circle><circle r="5" cx="1276.4" cy="990.88" fill="#8b9ad9"></circle><circle r="5" cx="1420.31" cy="-63.27" fill="#8b9ad9"></circle><circle r="5" cx="1425.86" cy="109.79" fill="#8b9ad9"></circle><circle r="5" cx="1442.92" cy="240.86" fill="#8b9ad9"></circle><circle r="5" cx="1450.75" cy="397.44" fill="#8b9ad9"></circle><circle r="5" cx="1424.06" cy="519.45" fill="#8b9ad9"></circle><circle r="5" cx="1394.73" cy="665.51" fill="#8b9ad9"></circle><circle r="5" cx="1413.23" cy="795.24" fill="#8b9ad9"></circle><circle r="5" cx="1441.25" cy="950.11" fill="#8b9ad9"></circle><circle r="5" cx="1582.27" cy="-95.84" fill="#8b9ad9"></circle><circle r="5" cx="1596.68" cy="102.35" fill="#8b9ad9"></circle><circle r="5" cx="1563.89" cy="522.03" fill="#8b9ad9"></circle><circle r="5" cx="1599.4" cy="810.25" fill="#8b9ad9"></circle><circle r="5" cx="1567.71" cy="985.32" fill="#8b9ad9"></circle></g><defs><mask id="SvgjsMask1432"><rect width="1440" height="768" fill="#ffffff"></rect></mask><linearGradient x1="0%" y1="50%" x2="100%" y2="50%" gradientUnits="userSpaceOnUse" id="SvgjsLinearGradient1433"><stop stop-color="#0e2a47" offset="0"></stop><stop stop-color="rgba(6, 27, 53, 1)" offset="1"></stop></linearGradient><radialGradient id="SvgjsRadialGradient1434"><stop stop-color="#ffffff" offset="0.1"></stop><stop stop-color="#1735b3" offset="0.2"></stop><stop stop-color="rgba(23, 53, 179, 0)" offset="1"></stop></radialGradient></defs></svg>