<svg id="visual" viewBox="0 0 900 600" width="900" height="600" xmlns="http://www.w3.org/2000/svg" xmlns:xlink="http://www.w3.org/1999/xlink" version="1.1"><path d="M602 600L404 600L404 570L701 570L701 540L611 540L611 510L485 510L485 480L773 480L773 450L485 450L485 420L557 420L557 390L539 390L539 360L458 360L458 330L647 330L647 300L647 300L647 270L791 270L791 240L800 240L800 210L755 210L755 180L449 180L449 150L791 150L791 120L557 120L557 90L602 90L602 60L647 60L647 30L557 30L557 0L900 0L900 30L900 30L900 60L900 60L900 90L900 90L900 120L900 120L900 150L900 150L900 180L900 180L900 210L900 210L900 240L900 240L900 270L900 270L900 300L900 300L900 330L900 330L900 360L900 360L900 390L900 390L900 420L900 420L900 450L900 450L900 480L900 480L900 510L900 510L900 540L900 540L900 570L900 570L900 600L900 600Z" fill="#f08a5d"></path><path d="M305 600L314 600L314 570L404 570L404 540L404 540L404 510L323 510L323 480L548 480L548 450L368 450L368 420L332 420L332 390L467 390L467 360L377 360L377 330L368 330L368 300L494 300L494 270L629 270L629 240L476 240L476 210L512 210L512 180L305 180L305 150L683 150L683 120L494 120L494 90L440 90L440 60L386 60L386 30L314 30L314 0L558 0L558 30L648 30L648 60L603 60L603 90L558 90L558 120L792 120L792 150L450 150L450 180L756 180L756 210L801 210L801 240L792 240L792 270L648 270L648 300L648 300L648 330L459 330L459 360L540 360L540 390L558 390L558 420L486 420L486 450L774 450L774 480L486 480L486 510L612 510L612 540L702 540L702 570L405 570L405 600L603 600Z" fill="#b0546a"></path><path d="M44 600L53 600L53 570L134 570L134 540L125 540L125 510L179 510L179 480L98 480L98 450L152 450L152 420L206 420L206 390L143 390L143 360L206 360L206 330L53 330L53 300L143 300L143 270L53 270L53 240L62 240L62 210L98 210L98 180L215 180L215 150L152 150L152 120L224 120L224 90L53 90L53 60L206 60L206 30L107 30L107 0L315 0L315 30L387 30L387 60L441 60L441 90L495 90L495 120L684 120L684 150L306 150L306 180L513 180L513 210L477 210L477 240L630 240L630 270L495 270L495 300L369 300L369 330L378 330L378 360L468 360L468 390L333 390L333 420L369 420L369 450L549 450L549 480L324 480L324 510L405 510L405 540L405 540L405 570L315 570L315 600L306 600Z" fill="#58355a"></path><path d="M0 600L0 600L0 570L0 570L0 540L0 540L0 510L0 510L0 480L0 480L0 450L0 450L0 420L0 420L0 390L0 390L0 360L0 360L0 330L0 330L0 300L0 300L0 270L0 270L0 240L0 240L0 210L0 210L0 180L0 180L0 150L0 150L0 120L0 120L0 90L0 90L0 60L0 60L0 30L0 30L0 0L108 0L108 30L207 30L207 60L54 60L54 90L225 90L225 120L153 120L153 150L216 150L216 180L99 180L99 210L63 210L63 240L54 240L54 270L144 270L144 300L54 300L54 330L207 330L207 360L144 360L144 390L207 390L207 420L153 420L153 450L99 450L99 480L180 480L180 510L126 510L126 540L135 540L135 570L54 570L54 600L45 600Z" fill="#0f172a"></path></svg>